<svg width="655" height="1382" viewBox="0 0 655 1382" fill="none" xmlns="http://www.w3.org/2000/svg">
<rect width="655" height="1382" fill="black" fill-opacity="0"/>
<rect width="655" height="1382" fill="black" fill-opacity="0"/>
<rect width="651.368" height="1379.75" fill="black" fill-opacity="0" transform="translate(0 2.25098)"/>
<rect y="2.25098" width="651.368" height="1379.75" fill="url(#paint0_linear)"/>
<rect width="651.888" height="1382" fill="black" fill-opacity="0"/>
<mask id="mask0" mask-type="alpha" maskUnits="userSpaceOnUse" x="0" y="0" width="652" height="1382">
<path d="M0 0H651.888V1382H0V0Z" fill="#43AFB1"/>
</mask>
<g mask="url(#mask0)">
<rect width="942.752" height="1929.58" fill="black" fill-opacity="0" transform="matrix(0.986684 -0.162649 0.185342 0.982674 -277.263 24.3867)"/>
<line x1="6" y1="-6" x2="890.099" y2="-6" transform="matrix(0.986684 -0.162649 0.185342 0.982674 -220.807 323.705)" stroke="#685757" stroke-opacity="0.04" stroke-width="12" stroke-linecap="round" stroke-linejoin="round" stroke-dasharray="36 20"/>
<line x1="6" y1="-6" x2="890.099" y2="-6" transform="matrix(0.986684 -0.162649 0.185342 0.982674 -178.784 294.873)" stroke="#685757" stroke-opacity="0.04" stroke-width="12" stroke-linecap="round" stroke-linejoin="round" stroke-dasharray="36 20"/>
<line x1="6" y1="-6" x2="890.099" y2="-6" transform="matrix(0.986684 -0.162649 0.185342 0.982674 -228.821 281.218)" stroke="#685757" stroke-opacity="0.04" stroke-width="12" stroke-linecap="round" stroke-linejoin="round" stroke-dasharray="36 20"/>
<line x1="6" y1="-6" x2="890.099" y2="-6" transform="matrix(0.986684 -0.162649 0.185342 0.982674 -162.757 379.85)" stroke="#685757" stroke-opacity="0.04" stroke-width="12" stroke-linecap="round" stroke-linejoin="round" stroke-dasharray="36 20"/>
<line x1="6" y1="-6" x2="890.099" y2="-6" transform="matrix(0.986684 -0.162649 0.185342 0.982674 -212.794 366.192)" stroke="#685757" stroke-opacity="0.04" stroke-width="12" stroke-linecap="round" stroke-linejoin="round" stroke-dasharray="36 20"/>
<line x1="6" y1="-6" x2="890.099" y2="-6" transform="matrix(0.986684 -0.162649 0.185342 0.982674 -170.771 337.362)" stroke="#685757" stroke-opacity="0.04" stroke-width="12" stroke-linecap="round" stroke-linejoin="round" stroke-dasharray="36 20"/>
<line x1="6" y1="-6" x2="890.099" y2="-6" transform="matrix(0.986684 -0.162649 0.185342 0.982674 -196.799 450.994)" stroke="#685757" stroke-opacity="0.04" stroke-width="12" stroke-linecap="round" stroke-linejoin="round" stroke-dasharray="36 20"/>
<line x1="6" y1="-6" x2="890.099" y2="-6" transform="matrix(0.986684 -0.162649 0.185342 0.982674 -154.775 422.163)" stroke="#685757" stroke-opacity="0.04" stroke-width="12" stroke-linecap="round" stroke-linejoin="round" stroke-dasharray="36 20"/>
<line x1="6" y1="-6" x2="890.099" y2="-6" transform="matrix(0.986684 -0.162649 0.185342 0.982674 -204.813 408.507)" stroke="#685757" stroke-opacity="0.04" stroke-width="12" stroke-linecap="round" stroke-linejoin="round" stroke-dasharray="36 20"/>
<line x1="6" y1="-6" x2="890.099" y2="-6" transform="matrix(0.986684 -0.162649 0.185342 0.982674 -138.749 507.139)" stroke="#685757" stroke-opacity="0.04" stroke-width="12" stroke-linecap="round" stroke-linejoin="round" stroke-dasharray="36 20"/>
<line x1="6" y1="-6" x2="890.099" y2="-6" transform="matrix(0.986684 -0.162649 0.185342 0.982674 -188.786 493.481)" stroke="#685757" stroke-opacity="0.04" stroke-width="12" stroke-linecap="round" stroke-linejoin="round" stroke-dasharray="36 20"/>
<line x1="6" y1="-6" x2="890.099" y2="-6" transform="matrix(0.986684 -0.162649 0.185342 0.982674 -146.762 464.65)" stroke="#685757" stroke-opacity="0.04" stroke-width="12" stroke-linecap="round" stroke-linejoin="round" stroke-dasharray="36 20"/>
<line x1="6" y1="-6" x2="889.876" y2="-6" transform="matrix(0.986684 -0.162649 0.185342 0.982674 -269.188 67.1934)" stroke="#685757" stroke-opacity="0.04" stroke-width="12" stroke-linecap="round" stroke-linejoin="round" stroke-dasharray="36 20"/>
<line x1="6" y1="-6" x2="889.876" y2="-6" transform="matrix(0.986684 -0.162649 0.185342 0.982674 -227.206 38.2031)" stroke="#685757" stroke-opacity="0.04" stroke-width="12" stroke-linecap="round" stroke-linejoin="round" stroke-dasharray="36 20"/>
<line x1="6" y1="-6" x2="889.876" y2="-6" transform="matrix(0.986684 -0.162649 0.185342 0.982674 -277.259 24.3857)" stroke="#685757" stroke-opacity="0.04" stroke-width="12" stroke-linecap="round" stroke-linejoin="round" stroke-dasharray="36 20"/>
<line x1="6" y1="-6" x2="889.876" y2="-6" transform="matrix(0.986684 -0.162649 0.185342 0.982674 -211.059 123.814)" stroke="#685757" stroke-opacity="0.04" stroke-width="12" stroke-linecap="round" stroke-linejoin="round" stroke-dasharray="36 20"/>
<line x1="6" y1="-6" x2="889.876" y2="-6" transform="matrix(0.986684 -0.162649 0.185342 0.982674 -261.115 109.998)" stroke="#685757" stroke-opacity="0.04" stroke-width="12" stroke-linecap="round" stroke-linejoin="round" stroke-dasharray="36 20"/>
<line x1="6" y1="-6" x2="889.876" y2="-6" transform="matrix(0.986684 -0.162649 0.185342 0.982674 -219.133 81.0098)" stroke="#685757" stroke-opacity="0.04" stroke-width="12" stroke-linecap="round" stroke-linejoin="round" stroke-dasharray="36 20"/>
<line x1="6" y1="-6" x2="889.876" y2="-6" transform="matrix(0.986684 -0.162649 0.185342 0.982674 -244.967 195.607)" stroke="#685757" stroke-opacity="0.04" stroke-width="12" stroke-linecap="round" stroke-linejoin="round" stroke-dasharray="36 20"/>
<line x1="6" y1="-6" x2="889.876" y2="-6" transform="matrix(0.986684 -0.162649 0.185342 0.982674 -202.986 166.619)" stroke="#685757" stroke-opacity="0.04" stroke-width="12" stroke-linecap="round" stroke-linejoin="round" stroke-dasharray="36 20"/>
<line x1="6" y1="-6" x2="889.876" y2="-6" transform="matrix(0.986684 -0.162649 0.185342 0.982674 -253.041 152.803)" stroke="#685757" stroke-opacity="0.04" stroke-width="12" stroke-linecap="round" stroke-linejoin="round" stroke-dasharray="36 20"/>
<line x1="6" y1="-6" x2="889.876" y2="-6" transform="matrix(0.986684 -0.162649 0.185342 0.982674 -186.839 252.229)" stroke="#685757" stroke-opacity="0.04" stroke-width="12" stroke-linecap="round" stroke-linejoin="round" stroke-dasharray="36 20"/>
<line x1="6" y1="-6" x2="889.876" y2="-6" transform="matrix(0.986684 -0.162649 0.185342 0.982674 -236.895 238.412)" stroke="#685757" stroke-opacity="0.04" stroke-width="12" stroke-linecap="round" stroke-linejoin="round" stroke-dasharray="36 20"/>
<line x1="6" y1="-6" x2="889.876" y2="-6" transform="matrix(0.986684 -0.162649 0.185342 0.982674 -194.912 209.424)" stroke="#685757" stroke-opacity="0.04" stroke-width="12" stroke-linecap="round" stroke-linejoin="round" stroke-dasharray="36 20"/>
<line x1="6" y1="-6" x2="890.099" y2="-6" transform="matrix(0.986684 -0.162649 0.185342 0.982674 -172.792 578.284)" stroke="#685757" stroke-opacity="0.04" stroke-width="12" stroke-linecap="round" stroke-linejoin="round" stroke-dasharray="36 20"/>
<line x1="6" y1="-6" x2="890.099" y2="-6" transform="matrix(0.986684 -0.162649 0.185342 0.982674 -130.768 549.451)" stroke="#685757" stroke-opacity="0.04" stroke-width="12" stroke-linecap="round" stroke-linejoin="round" stroke-dasharray="36 20"/>
<line x1="6" y1="-6" x2="890.099" y2="-6" transform="matrix(0.986684 -0.162649 0.185342 0.982674 -180.805 535.796)" stroke="#685757" stroke-opacity="0.04" stroke-width="12" stroke-linecap="round" stroke-linejoin="round" stroke-dasharray="36 20"/>
<line x1="6" y1="-6" x2="890.099" y2="-6" transform="matrix(0.986684 -0.162649 0.185342 0.982674 -114.74 634.426)" stroke="#685757" stroke-opacity="0.04" stroke-width="12" stroke-linecap="round" stroke-linejoin="round" stroke-dasharray="36 20"/>
<line x1="6" y1="-6" x2="890.099" y2="-6" transform="matrix(0.986684 -0.162649 0.185342 0.982674 -164.778 620.771)" stroke="#685757" stroke-opacity="0.04" stroke-width="12" stroke-linecap="round" stroke-linejoin="round" stroke-dasharray="36 20"/>
<line x1="6" y1="-6" x2="890.099" y2="-6" transform="matrix(0.986684 -0.162649 0.185342 0.982674 -122.754 591.938)" stroke="#685757" stroke-opacity="0.04" stroke-width="12" stroke-linecap="round" stroke-linejoin="round" stroke-dasharray="36 20"/>
<line x1="6" y1="-6" x2="890.099" y2="-6" transform="matrix(0.986684 -0.162649 0.185342 0.982674 -100.13 963.528)" stroke="#685757" stroke-opacity="0.04" stroke-width="12" stroke-linecap="round" stroke-linejoin="round" stroke-dasharray="36 20"/>
<line x1="6" y1="-6" x2="890.099" y2="-6" transform="matrix(0.986684 -0.162649 0.185342 0.982674 -58.1064 934.697)" stroke="#685757" stroke-opacity="0.04" stroke-width="12" stroke-linecap="round" stroke-linejoin="round" stroke-dasharray="36 20"/>
<line x1="6" y1="-6" x2="890.099" y2="-6" transform="matrix(0.986684 -0.162649 0.185342 0.982674 -108.144 921.044)" stroke="#685757" stroke-opacity="0.04" stroke-width="12" stroke-linecap="round" stroke-linejoin="round" stroke-dasharray="36 20"/>
<line x1="6" y1="-6" x2="890.099" y2="-6" transform="matrix(0.986684 -0.162649 0.185342 0.982674 -42.0801 1019.67)" stroke="#685757" stroke-opacity="0.04" stroke-width="12" stroke-linecap="round" stroke-linejoin="round" stroke-dasharray="36 20"/>
<line x1="6" y1="-6" x2="890.099" y2="-6" transform="matrix(0.986684 -0.162649 0.185342 0.982674 -92.1165 1006.02)" stroke="#685757" stroke-opacity="0.04" stroke-width="12" stroke-linecap="round" stroke-linejoin="round" stroke-dasharray="36 20"/>
<line x1="6" y1="-6" x2="890.099" y2="-6" transform="matrix(0.986684 -0.162649 0.185342 0.982674 -50.0933 977.184)" stroke="#685757" stroke-opacity="0.04" stroke-width="12" stroke-linecap="round" stroke-linejoin="round" stroke-dasharray="36 20"/>
<line x1="6" y1="-6" x2="890.099" y2="-6" transform="matrix(0.986684 -0.162649 0.185342 0.982674 -76.1221 1090.82)" stroke="#685757" stroke-opacity="0.04" stroke-width="12" stroke-linecap="round" stroke-linejoin="round" stroke-dasharray="36 20"/>
<line x1="6" y1="-6" x2="890.099" y2="-6" transform="matrix(0.986684 -0.162649 0.185342 0.982674 -34.0989 1061.99)" stroke="#685757" stroke-opacity="0.04" stroke-width="12" stroke-linecap="round" stroke-linejoin="round" stroke-dasharray="36 20"/>
<line x1="6" y1="-6" x2="890.099" y2="-6" transform="matrix(0.986684 -0.162649 0.185342 0.982674 -84.136 1048.33)" stroke="#685757" stroke-opacity="0.04" stroke-width="12" stroke-linecap="round" stroke-linejoin="round" stroke-dasharray="36 20"/>
<line x1="6" y1="-6" x2="890.099" y2="-6" transform="matrix(0.986684 -0.162649 0.185342 0.982674 -18.0718 1146.96)" stroke="#685757" stroke-opacity="0.04" stroke-width="12" stroke-linecap="round" stroke-linejoin="round" stroke-dasharray="36 20"/>
<line x1="6" y1="-6" x2="890.099" y2="-6" transform="matrix(0.986684 -0.162649 0.185342 0.982674 -68.1086 1133.31)" stroke="#685757" stroke-opacity="0.04" stroke-width="12" stroke-linecap="round" stroke-linejoin="round" stroke-dasharray="36 20"/>
<line x1="6" y1="-6" x2="890.099" y2="-6" transform="matrix(0.986684 -0.162649 0.185342 0.982674 -26.085 1104.47)" stroke="#685757" stroke-opacity="0.04" stroke-width="12" stroke-linecap="round" stroke-linejoin="round" stroke-dasharray="36 20"/>
<line x1="6" y1="-6" x2="889.876" y2="-6" transform="matrix(0.986684 -0.162649 0.185342 0.982674 -148.512 707.017)" stroke="#685757" stroke-opacity="0.04" stroke-width="12" stroke-linecap="round" stroke-linejoin="round" stroke-dasharray="36 20"/>
<line x1="6" y1="-6" x2="889.876" y2="-6" transform="matrix(0.986684 -0.162649 0.185342 0.982674 -106.529 678.028)" stroke="#685757" stroke-opacity="0.04" stroke-width="12" stroke-linecap="round" stroke-linejoin="round" stroke-dasharray="36 20"/>
<line x1="6" y1="-6" x2="889.876" y2="-6" transform="matrix(0.986684 -0.162649 0.185342 0.982674 -156.584 664.212)" stroke="#685757" stroke-opacity="0.04" stroke-width="12" stroke-linecap="round" stroke-linejoin="round" stroke-dasharray="36 20"/>
<line x1="6" y1="-6" x2="889.876" y2="-6" transform="matrix(0.986684 -0.162649 0.185342 0.982674 -90.3816 763.638)" stroke="#685757" stroke-opacity="0.04" stroke-width="12" stroke-linecap="round" stroke-linejoin="round" stroke-dasharray="36 20"/>
<line x1="6" y1="-6" x2="889.876" y2="-6" transform="matrix(0.986684 -0.162649 0.185342 0.982674 -140.438 749.82)" stroke="#685757" stroke-opacity="0.04" stroke-width="12" stroke-linecap="round" stroke-linejoin="round" stroke-dasharray="36 20"/>
<line x1="6" y1="-6" x2="889.876" y2="-6" transform="matrix(0.986684 -0.162649 0.185342 0.982674 -98.4551 720.833)" stroke="#685757" stroke-opacity="0.04" stroke-width="12" stroke-linecap="round" stroke-linejoin="round" stroke-dasharray="36 20"/>
<line x1="6" y1="-6" x2="889.876" y2="-6" transform="matrix(0.986684 -0.162649 0.185342 0.982674 -124.291 835.432)" stroke="#685757" stroke-opacity="0.04" stroke-width="12" stroke-linecap="round" stroke-linejoin="round" stroke-dasharray="36 20"/>
<line x1="6" y1="-6" x2="889.876" y2="-6" transform="matrix(0.986684 -0.162649 0.185342 0.982674 -82.3083 806.443)" stroke="#685757" stroke-opacity="0.04" stroke-width="12" stroke-linecap="round" stroke-linejoin="round" stroke-dasharray="36 20"/>
<line x1="6" y1="-6" x2="889.876" y2="-6" transform="matrix(0.986684 -0.162649 0.185342 0.982674 -132.365 792.626)" stroke="#685757" stroke-opacity="0.04" stroke-width="12" stroke-linecap="round" stroke-linejoin="round" stroke-dasharray="36 20"/>
<line x1="6" y1="-6" x2="889.876" y2="-6" transform="matrix(0.986684 -0.162649 0.185342 0.982674 -66.1609 892.053)" stroke="#685757" stroke-opacity="0.04" stroke-width="12" stroke-linecap="round" stroke-linejoin="round" stroke-dasharray="36 20"/>
<line x1="6" y1="-6" x2="889.876" y2="-6" transform="matrix(0.986684 -0.162649 0.185342 0.982674 -116.217 878.237)" stroke="#685757" stroke-opacity="0.04" stroke-width="12" stroke-linecap="round" stroke-linejoin="round" stroke-dasharray="36 20"/>
<line x1="6" y1="-6" x2="889.876" y2="-6" transform="matrix(0.986684 -0.162649 0.185342 0.982674 -74.2349 849.248)" stroke="#685757" stroke-opacity="0.04" stroke-width="12" stroke-linecap="round" stroke-linejoin="round" stroke-dasharray="36 20"/>
<line x1="6" y1="-6" x2="890.099" y2="-6" transform="matrix(0.986684 -0.162649 0.185342 0.982674 -52.1143 1218.11)" stroke="#685757" stroke-opacity="0.04" stroke-width="12" stroke-linecap="round" stroke-linejoin="round" stroke-dasharray="36 20"/>
<line x1="6" y1="-6" x2="890.099" y2="-6" transform="matrix(0.986684 -0.162649 0.185342 0.982674 -10.0903 1189.28)" stroke="#685757" stroke-opacity="0.04" stroke-width="12" stroke-linecap="round" stroke-linejoin="round" stroke-dasharray="36 20"/>
<line x1="6" y1="-6" x2="890.099" y2="-6" transform="matrix(0.986684 -0.162649 0.185342 0.982674 -60.1282 1175.62)" stroke="#685757" stroke-opacity="0.04" stroke-width="12" stroke-linecap="round" stroke-linejoin="round" stroke-dasharray="36 20"/>
<line x1="6" y1="-6" x2="890.099" y2="-6" transform="matrix(0.986684 -0.162649 0.185342 0.982674 5.93677 1274.25)" stroke="#685757" stroke-opacity="0.04" stroke-width="12" stroke-linecap="round" stroke-linejoin="round" stroke-dasharray="36 20"/>
<line x1="6" y1="-6" x2="890.099" y2="-6" transform="matrix(0.986684 -0.162649 0.185342 0.982674 -44.1011 1260.59)" stroke="#685757" stroke-opacity="0.04" stroke-width="12" stroke-linecap="round" stroke-linejoin="round" stroke-dasharray="36 20"/>
<line x1="6" y1="-6" x2="890.099" y2="-6" transform="matrix(0.986684 -0.162649 0.185342 0.982674 -2.07812 1231.76)" stroke="#685757" stroke-opacity="0.04" stroke-width="12" stroke-linecap="round" stroke-linejoin="round" stroke-dasharray="36 20"/>
<line x1="6" y1="-6" x2="889.876" y2="-6" transform="matrix(0.986684 -0.162649 0.185342 0.982674 -28.0464 1345.71)" stroke="#685757" stroke-opacity="0.04" stroke-width="12" stroke-linecap="round" stroke-linejoin="round" stroke-dasharray="36 20"/>
<line x1="6" y1="-6" x2="889.876" y2="-6" transform="matrix(0.986684 -0.162649 0.185342 0.982674 13.9363 1316.72)" stroke="#685757" stroke-opacity="0.04" stroke-width="12" stroke-linecap="round" stroke-linejoin="round" stroke-dasharray="36 20"/>
<line x1="6" y1="-6" x2="889.876" y2="-6" transform="matrix(0.986684 -0.162649 0.185342 0.982674 -36.1199 1302.91)" stroke="#685757" stroke-opacity="0.04" stroke-width="12" stroke-linecap="round" stroke-linejoin="round" stroke-dasharray="36 20"/>
<line x1="6" y1="-6" x2="889.876" y2="-6" transform="matrix(0.986684 -0.162649 0.185342 0.982674 30.083 1402.33)" stroke="#685757" stroke-opacity="0.04" stroke-width="12" stroke-linecap="round" stroke-linejoin="round" stroke-dasharray="36 20"/>
<line x1="6" y1="-6" x2="889.876" y2="-6" transform="matrix(0.986684 -0.162649 0.185342 0.982674 -19.9724 1388.52)" stroke="#685757" stroke-opacity="0.04" stroke-width="12" stroke-linecap="round" stroke-linejoin="round" stroke-dasharray="36 20"/>
<line x1="6" y1="-6" x2="889.876" y2="-6" transform="matrix(0.986684 -0.162649 0.185342 0.982674 22.0088 1359.53)" stroke="#685757" stroke-opacity="0.04" stroke-width="12" stroke-linecap="round" stroke-linejoin="round" stroke-dasharray="36 20"/>
<line x1="6" y1="-6" x2="889.876" y2="-6" transform="matrix(0.986684 -0.162649 0.185342 0.982674 -3.82642 1474.13)" stroke="#685757" stroke-opacity="0.04" stroke-width="12" stroke-linecap="round" stroke-linejoin="round" stroke-dasharray="36 20"/>
<line x1="6" y1="-6" x2="889.876" y2="-6" transform="matrix(0.986684 -0.162649 0.185342 0.982674 38.1555 1445.14)" stroke="#685757" stroke-opacity="0.04" stroke-width="12" stroke-linecap="round" stroke-linejoin="round" stroke-dasharray="36 20"/>
<line x1="6" y1="-6" x2="889.876" y2="-6" transform="matrix(0.986684 -0.162649 0.185342 0.982674 -11.8997 1431.32)" stroke="#685757" stroke-opacity="0.04" stroke-width="12" stroke-linecap="round" stroke-linejoin="round" stroke-dasharray="36 20"/>
<line x1="6" y1="-6" x2="889.876" y2="-6" transform="matrix(0.986684 -0.162649 0.185342 0.982674 54.303 1530.75)" stroke="#685757" stroke-opacity="0.04" stroke-width="12" stroke-linecap="round" stroke-linejoin="round" stroke-dasharray="36 20"/>
<line x1="6" y1="-6" x2="889.876" y2="-6" transform="matrix(0.986684 -0.162649 0.185342 0.982674 4.24707 1516.93)" stroke="#685757" stroke-opacity="0.04" stroke-width="12" stroke-linecap="round" stroke-linejoin="round" stroke-dasharray="36 20"/>
<line x1="6" y1="-6" x2="889.876" y2="-6" transform="matrix(0.986684 -0.162649 0.185342 0.982674 46.2297 1487.94)" stroke="#685757" stroke-opacity="0.04" stroke-width="12" stroke-linecap="round" stroke-linejoin="round" stroke-dasharray="36 20"/>
</g>
<defs>
<linearGradient id="paint0_linear" x1="-1.94123e-05" y1="1382" x2="575.438" y2="-28.721" gradientUnits="userSpaceOnUse">
<stop stop-color="#61C0BB"/>
<stop offset="0.0001" stop-color="#61C0BB"/>
<stop offset="1" stop-color="#7ED9D4"/>
</linearGradient>
</defs>
</svg>
