<svg width="538" height="1226" viewBox="0 0 538 1226" fill="none" xmlns="http://www.w3.org/2000/svg">
<rect width="538" height="1226" fill="black" fill-opacity="0"/>
<rect width="538" height="1226" fill="black" fill-opacity="0"/>
<rect width="538" height="1226" rx="5" fill="url(#paint0_linear)"/>
<rect width="538" height="1223" fill="black" fill-opacity="0" transform="translate(0 1)"/>
<mask id="mask0" mask-type="alpha" maskUnits="userSpaceOnUse" x="0" y="1" width="538" height="1223">
<path d="M0 6C0 3.23858 2.23858 1 5 1H533C535.761 1 538 3.23858 538 6V1219C538 1221.76 535.761 1224 533 1224H5C2.23858 1224 0 1221.76 0 1219V6Z" fill="#43AFB1"/>
</mask>
<g mask="url(#mask0)">
<rect width="777.783" height="1703.63" fill="black" fill-opacity="0" transform="matrix(0.984663 -0.174465 0.172835 0.984951 -228.277 22.5801)"/>
<line x1="6" y1="-6" x2="733.295" y2="-6" transform="matrix(0.984663 -0.174465 0.172835 0.984951 -181.797 287.461)" stroke="#685757" stroke-opacity="0.1" stroke-width="12" stroke-linecap="round" stroke-linejoin="round" stroke-dasharray="36 20"/>
<line x1="6" y1="-6" x2="733.295" y2="-6" transform="matrix(0.984663 -0.174465 0.172835 0.984951 -147.198 261.947)" stroke="#685757" stroke-opacity="0.1" stroke-width="12" stroke-linecap="round" stroke-linejoin="round" stroke-dasharray="36 20"/>
<line x1="6" y1="-6" x2="733.295" y2="-6" transform="matrix(0.984663 -0.174465 0.172835 0.984951 -188.395 249.862)" stroke="#685757" stroke-opacity="0.1" stroke-width="12" stroke-linecap="round" stroke-linejoin="round" stroke-dasharray="36 20"/>
<line x1="6" y1="-6" x2="733.295" y2="-6" transform="matrix(0.984663 -0.174465 0.172835 0.984951 -134.002 337.146)" stroke="#685757" stroke-opacity="0.1" stroke-width="12" stroke-linecap="round" stroke-linejoin="round" stroke-dasharray="36 20"/>
<line x1="6" y1="-6" x2="733.295" y2="-6" transform="matrix(0.984663 -0.174465 0.172835 0.984951 -175.199 325.061)" stroke="#685757" stroke-opacity="0.1" stroke-width="12" stroke-linecap="round" stroke-linejoin="round" stroke-dasharray="36 20"/>
<line x1="6" y1="-6" x2="733.295" y2="-6" transform="matrix(0.984663 -0.174465 0.172835 0.984951 -140.6 299.546)" stroke="#685757" stroke-opacity="0.1" stroke-width="12" stroke-linecap="round" stroke-linejoin="round" stroke-dasharray="36 20"/>
<line x1="6" y1="-6" x2="733.295" y2="-6" transform="matrix(0.984663 -0.174465 0.172835 0.984951 -162.03 400.105)" stroke="#685757" stroke-opacity="0.1" stroke-width="12" stroke-linecap="round" stroke-linejoin="round" stroke-dasharray="36 20"/>
<line x1="6" y1="-6" x2="733.295" y2="-6" transform="matrix(0.984663 -0.174465 0.172835 0.984951 -127.432 374.592)" stroke="#685757" stroke-opacity="0.1" stroke-width="12" stroke-linecap="round" stroke-linejoin="round" stroke-dasharray="36 20"/>
<line x1="6" y1="-6" x2="733.295" y2="-6" transform="matrix(0.984663 -0.174465 0.172835 0.984951 -168.628 362.507)" stroke="#685757" stroke-opacity="0.1" stroke-width="12" stroke-linecap="round" stroke-linejoin="round" stroke-dasharray="36 20"/>
<line x1="6" y1="-6" x2="733.295" y2="-6" transform="matrix(0.984663 -0.174465 0.172835 0.984951 -114.235 449.79)" stroke="#685757" stroke-opacity="0.1" stroke-width="12" stroke-linecap="round" stroke-linejoin="round" stroke-dasharray="36 20"/>
<line x1="6" y1="-6" x2="733.295" y2="-6" transform="matrix(0.984663 -0.174465 0.172835 0.984951 -155.433 437.705)" stroke="#685757" stroke-opacity="0.1" stroke-width="12" stroke-linecap="round" stroke-linejoin="round" stroke-dasharray="36 20"/>
<line x1="6" y1="-6" x2="733.295" y2="-6" transform="matrix(0.984663 -0.174465 0.172835 0.984951 -120.834 412.19)" stroke="#685757" stroke-opacity="0.1" stroke-width="12" stroke-linecap="round" stroke-linejoin="round" stroke-dasharray="36 20"/>
<line x1="6" y1="-6" x2="733.11" y2="-6" transform="matrix(0.984663 -0.174465 0.172835 0.984951 -221.63 60.4604)" stroke="#685757" stroke-opacity="0.1" stroke-width="12" stroke-linecap="round" stroke-linejoin="round" stroke-dasharray="36 20"/>
<line x1="6" y1="-6" x2="733.11" y2="-6" transform="matrix(0.984663 -0.174465 0.172835 0.984951 -187.065 34.8071)" stroke="#685757" stroke-opacity="0.1" stroke-width="12" stroke-linecap="round" stroke-linejoin="round" stroke-dasharray="36 20"/>
<line x1="6" y1="-6" x2="733.11" y2="-6" transform="matrix(0.984663 -0.174465 0.172835 0.984951 -228.276 22.5801)" stroke="#685757" stroke-opacity="0.1" stroke-width="12" stroke-linecap="round" stroke-linejoin="round" stroke-dasharray="36 20"/>
<line x1="6" y1="-6" x2="733.11" y2="-6" transform="matrix(0.984663 -0.174465 0.172835 0.984951 -173.771 110.568)" stroke="#685757" stroke-opacity="0.1" stroke-width="12" stroke-linecap="round" stroke-linejoin="round" stroke-dasharray="36 20"/>
<line x1="6" y1="-6" x2="733.11" y2="-6" transform="matrix(0.984663 -0.174465 0.172835 0.984951 -214.982 98.3413)" stroke="#685757" stroke-opacity="0.1" stroke-width="12" stroke-linecap="round" stroke-linejoin="round" stroke-dasharray="36 20"/>
<line x1="6" y1="-6" x2="733.11" y2="-6" transform="matrix(0.984663 -0.174465 0.172835 0.984951 -180.418 72.6875)" stroke="#685757" stroke-opacity="0.1" stroke-width="12" stroke-linecap="round" stroke-linejoin="round" stroke-dasharray="36 20"/>
<line x1="6" y1="-6" x2="733.11" y2="-6" transform="matrix(0.984663 -0.174465 0.172835 0.984951 -201.688 174.102)" stroke="#685757" stroke-opacity="0.1" stroke-width="12" stroke-linecap="round" stroke-linejoin="round" stroke-dasharray="36 20"/>
<line x1="6" y1="-6" x2="733.11" y2="-6" transform="matrix(0.984663 -0.174465 0.172835 0.984951 -167.124 148.448)" stroke="#685757" stroke-opacity="0.1" stroke-width="12" stroke-linecap="round" stroke-linejoin="round" stroke-dasharray="36 20"/>
<line x1="6" y1="-6" x2="733.11" y2="-6" transform="matrix(0.984663 -0.174465 0.172835 0.984951 -208.336 136.222)" stroke="#685757" stroke-opacity="0.1" stroke-width="12" stroke-linecap="round" stroke-linejoin="round" stroke-dasharray="36 20"/>
<line x1="6" y1="-6" x2="733.11" y2="-6" transform="matrix(0.984663 -0.174465 0.172835 0.984951 -153.83 224.209)" stroke="#685757" stroke-opacity="0.1" stroke-width="12" stroke-linecap="round" stroke-linejoin="round" stroke-dasharray="36 20"/>
<line x1="6" y1="-6" x2="733.11" y2="-6" transform="matrix(0.984663 -0.174465 0.172835 0.984951 -195.042 211.982)" stroke="#685757" stroke-opacity="0.1" stroke-width="12" stroke-linecap="round" stroke-linejoin="round" stroke-dasharray="36 20"/>
<line x1="6" y1="-6" x2="733.11" y2="-6" transform="matrix(0.984663 -0.174465 0.172835 0.984951 -160.477 186.329)" stroke="#685757" stroke-opacity="0.1" stroke-width="12" stroke-linecap="round" stroke-linejoin="round" stroke-dasharray="36 20"/>
<line x1="6" y1="-6" x2="733.295" y2="-6" transform="matrix(0.984663 -0.174465 0.172835 0.984951 -142.264 512.75)" stroke="#685757" stroke-opacity="0.1" stroke-width="12" stroke-linecap="round" stroke-linejoin="round" stroke-dasharray="36 20"/>
<line x1="6" y1="-6" x2="733.295" y2="-6" transform="matrix(0.984663 -0.174465 0.172835 0.984951 -107.665 487.236)" stroke="#685757" stroke-opacity="0.1" stroke-width="12" stroke-linecap="round" stroke-linejoin="round" stroke-dasharray="36 20"/>
<line x1="6" y1="-6" x2="733.295" y2="-6" transform="matrix(0.984663 -0.174465 0.172835 0.984951 -148.862 475.151)" stroke="#685757" stroke-opacity="0.1" stroke-width="12" stroke-linecap="round" stroke-linejoin="round" stroke-dasharray="36 20"/>
<line x1="6" y1="-6" x2="733.295" y2="-6" transform="matrix(0.984663 -0.174465 0.172835 0.984951 -94.4697 562.434)" stroke="#685757" stroke-opacity="0.1" stroke-width="12" stroke-linecap="round" stroke-linejoin="round" stroke-dasharray="36 20"/>
<line x1="6" y1="-6" x2="733.295" y2="-6" transform="matrix(0.984663 -0.174465 0.172835 0.984951 -135.666 550.349)" stroke="#685757" stroke-opacity="0.1" stroke-width="12" stroke-linecap="round" stroke-linejoin="round" stroke-dasharray="36 20"/>
<line x1="6" y1="-6" x2="733.295" y2="-6" transform="matrix(0.984663 -0.174465 0.172835 0.984951 -101.067 524.834)" stroke="#685757" stroke-opacity="0.1" stroke-width="12" stroke-linecap="round" stroke-linejoin="round" stroke-dasharray="36 20"/>
<line x1="6" y1="-6" x2="733.295" y2="-6" transform="matrix(0.984663 -0.174465 0.172835 0.984951 -82.4404 853.673)" stroke="#685757" stroke-opacity="0.1" stroke-width="12" stroke-linecap="round" stroke-linejoin="round" stroke-dasharray="36 20"/>
<line x1="6" y1="-6" x2="733.295" y2="-6" transform="matrix(0.984663 -0.174465 0.172835 0.984951 -47.8408 828.159)" stroke="#685757" stroke-opacity="0.1" stroke-width="12" stroke-linecap="round" stroke-linejoin="round" stroke-dasharray="36 20"/>
<line x1="6" y1="-6" x2="733.295" y2="-6" transform="matrix(0.984663 -0.174465 0.172835 0.984951 -89.0381 816.075)" stroke="#685757" stroke-opacity="0.1" stroke-width="12" stroke-linecap="round" stroke-linejoin="round" stroke-dasharray="36 20"/>
<line x1="6" y1="-6" x2="733.295" y2="-6" transform="matrix(0.984663 -0.174465 0.172835 0.984951 -34.6455 903.357)" stroke="#685757" stroke-opacity="0.1" stroke-width="12" stroke-linecap="round" stroke-linejoin="round" stroke-dasharray="36 20"/>
<line x1="6" y1="-6" x2="733.295" y2="-6" transform="matrix(0.984663 -0.174465 0.172835 0.984951 -75.8428 891.272)" stroke="#685757" stroke-opacity="0.1" stroke-width="12" stroke-linecap="round" stroke-linejoin="round" stroke-dasharray="36 20"/>
<line x1="6" y1="-6" x2="733.295" y2="-6" transform="matrix(0.984663 -0.174465 0.172835 0.984951 -41.2432 865.758)" stroke="#685757" stroke-opacity="0.1" stroke-width="12" stroke-linecap="round" stroke-linejoin="round" stroke-dasharray="36 20"/>
<line x1="6" y1="-6" x2="733.295" y2="-6" transform="matrix(0.984663 -0.174465 0.172835 0.984951 -62.6738 966.318)" stroke="#685757" stroke-opacity="0.1" stroke-width="12" stroke-linecap="round" stroke-linejoin="round" stroke-dasharray="36 20"/>
<line x1="6" y1="-6" x2="733.295" y2="-6" transform="matrix(0.984663 -0.174465 0.172835 0.984951 -28.0752 940.803)" stroke="#685757" stroke-opacity="0.1" stroke-width="12" stroke-linecap="round" stroke-linejoin="round" stroke-dasharray="36 20"/>
<line x1="6" y1="-6" x2="733.295" y2="-6" transform="matrix(0.984663 -0.174465 0.172835 0.984951 -69.2715 928.719)" stroke="#685757" stroke-opacity="0.1" stroke-width="12" stroke-linecap="round" stroke-linejoin="round" stroke-dasharray="36 20"/>
<line x1="6" y1="-6" x2="733.295" y2="-6" transform="matrix(0.984663 -0.174465 0.172835 0.984951 -14.8799 1016)" stroke="#685757" stroke-opacity="0.1" stroke-width="12" stroke-linecap="round" stroke-linejoin="round" stroke-dasharray="36 20"/>
<line x1="6" y1="-6" x2="733.295" y2="-6" transform="matrix(0.984663 -0.174465 0.172835 0.984951 -56.0762 1003.92)" stroke="#685757" stroke-opacity="0.1" stroke-width="12" stroke-linecap="round" stroke-linejoin="round" stroke-dasharray="36 20"/>
<line x1="6" y1="-6" x2="733.295" y2="-6" transform="matrix(0.984663 -0.174465 0.172835 0.984951 -21.4775 978.402)" stroke="#685757" stroke-opacity="0.1" stroke-width="12" stroke-linecap="round" stroke-linejoin="round" stroke-dasharray="36 20"/>
<line x1="6" y1="-6" x2="733.11" y2="-6" transform="matrix(0.984663 -0.174465 0.172835 0.984951 -122.273 626.672)" stroke="#685757" stroke-opacity="0.1" stroke-width="12" stroke-linecap="round" stroke-linejoin="round" stroke-dasharray="36 20"/>
<line x1="6" y1="-6" x2="733.11" y2="-6" transform="matrix(0.984663 -0.174465 0.172835 0.984951 -87.708 601.019)" stroke="#685757" stroke-opacity="0.1" stroke-width="12" stroke-linecap="round" stroke-linejoin="round" stroke-dasharray="36 20"/>
<line x1="6" y1="-6" x2="733.11" y2="-6" transform="matrix(0.984663 -0.174465 0.172835 0.984951 -128.921 588.792)" stroke="#685757" stroke-opacity="0.1" stroke-width="12" stroke-linecap="round" stroke-linejoin="round" stroke-dasharray="36 20"/>
<line x1="6" y1="-6" x2="733.11" y2="-6" transform="matrix(0.984663 -0.174465 0.172835 0.984951 -74.4141 676.78)" stroke="#685757" stroke-opacity="0.1" stroke-width="12" stroke-linecap="round" stroke-linejoin="round" stroke-dasharray="36 20"/>
<line x1="6" y1="-6" x2="733.11" y2="-6" transform="matrix(0.984663 -0.174465 0.172835 0.984951 -115.627 664.553)" stroke="#685757" stroke-opacity="0.1" stroke-width="12" stroke-linecap="round" stroke-linejoin="round" stroke-dasharray="36 20"/>
<line x1="6" y1="-6" x2="733.11" y2="-6" transform="matrix(0.984663 -0.174465 0.172835 0.984951 -81.0615 638.899)" stroke="#685757" stroke-opacity="0.1" stroke-width="12" stroke-linecap="round" stroke-linejoin="round" stroke-dasharray="36 20"/>
<line x1="6" y1="-6" x2="733.11" y2="-6" transform="matrix(0.984663 -0.174465 0.172835 0.984951 -102.332 740.313)" stroke="#685757" stroke-opacity="0.1" stroke-width="12" stroke-linecap="round" stroke-linejoin="round" stroke-dasharray="36 20"/>
<line x1="6" y1="-6" x2="733.11" y2="-6" transform="matrix(0.984663 -0.174465 0.172835 0.984951 -67.7676 714.66)" stroke="#685757" stroke-opacity="0.1" stroke-width="12" stroke-linecap="round" stroke-linejoin="round" stroke-dasharray="36 20"/>
<line x1="6" y1="-6" x2="733.11" y2="-6" transform="matrix(0.984663 -0.174465 0.172835 0.984951 -108.979 702.433)" stroke="#685757" stroke-opacity="0.1" stroke-width="12" stroke-linecap="round" stroke-linejoin="round" stroke-dasharray="36 20"/>
<line x1="6" y1="-6" x2="733.11" y2="-6" transform="matrix(0.984663 -0.174465 0.172835 0.984951 -54.4727 790.42)" stroke="#685757" stroke-opacity="0.1" stroke-width="12" stroke-linecap="round" stroke-linejoin="round" stroke-dasharray="36 20"/>
<line x1="6" y1="-6" x2="733.11" y2="-6" transform="matrix(0.984663 -0.174465 0.172835 0.984951 -95.6855 778.194)" stroke="#685757" stroke-opacity="0.1" stroke-width="12" stroke-linecap="round" stroke-linejoin="round" stroke-dasharray="36 20"/>
<line x1="6" y1="-6" x2="733.11" y2="-6" transform="matrix(0.984663 -0.174465 0.172835 0.984951 -61.1201 752.541)" stroke="#685757" stroke-opacity="0.1" stroke-width="12" stroke-linecap="round" stroke-linejoin="round" stroke-dasharray="36 20"/>
<line x1="6" y1="-6" x2="733.295" y2="-6" transform="matrix(0.984663 -0.174465 0.172835 0.984951 -42.9082 1078.96)" stroke="#685757" stroke-opacity="0.1" stroke-width="12" stroke-linecap="round" stroke-linejoin="round" stroke-dasharray="36 20"/>
<line x1="6" y1="-6" x2="733.295" y2="-6" transform="matrix(0.984663 -0.174465 0.172835 0.984951 -8.30859 1053.45)" stroke="#685757" stroke-opacity="0.1" stroke-width="12" stroke-linecap="round" stroke-linejoin="round" stroke-dasharray="36 20"/>
<line x1="6" y1="-6" x2="733.295" y2="-6" transform="matrix(0.984663 -0.174465 0.172835 0.984951 -49.5059 1041.36)" stroke="#685757" stroke-opacity="0.1" stroke-width="12" stroke-linecap="round" stroke-linejoin="round" stroke-dasharray="36 20"/>
<line x1="6" y1="-6" x2="733.295" y2="-6" transform="matrix(0.984663 -0.174465 0.172835 0.984951 4.88672 1128.65)" stroke="#685757" stroke-opacity="0.1" stroke-width="12" stroke-linecap="round" stroke-linejoin="round" stroke-dasharray="36 20"/>
<line x1="6" y1="-6" x2="733.295" y2="-6" transform="matrix(0.984663 -0.174465 0.172835 0.984951 -36.3096 1116.56)" stroke="#685757" stroke-opacity="0.1" stroke-width="12" stroke-linecap="round" stroke-linejoin="round" stroke-dasharray="36 20"/>
<line x1="6" y1="-6" x2="733.295" y2="-6" transform="matrix(0.984663 -0.174465 0.172835 0.984951 -1.71094 1091.05)" stroke="#685757" stroke-opacity="0.1" stroke-width="12" stroke-linecap="round" stroke-linejoin="round" stroke-dasharray="36 20"/>
<line x1="6" y1="-6" x2="733.11" y2="-6" transform="matrix(0.984663 -0.174465 0.172835 0.984951 -23.0918 1191.89)" stroke="#685757" stroke-opacity="0.1" stroke-width="12" stroke-linecap="round" stroke-linejoin="round" stroke-dasharray="36 20"/>
<line x1="6" y1="-6" x2="733.11" y2="-6" transform="matrix(0.984663 -0.174465 0.172835 0.984951 11.4736 1166.23)" stroke="#685757" stroke-opacity="0.1" stroke-width="12" stroke-linecap="round" stroke-linejoin="round" stroke-dasharray="36 20"/>
<line x1="6" y1="-6" x2="733.11" y2="-6" transform="matrix(0.984663 -0.174465 0.172835 0.984951 -29.7393 1154.01)" stroke="#685757" stroke-opacity="0.1" stroke-width="12" stroke-linecap="round" stroke-linejoin="round" stroke-dasharray="36 20"/>
<line x1="6" y1="-6" x2="733.11" y2="-6" transform="matrix(0.984663 -0.174465 0.172835 0.984951 24.7676 1242)" stroke="#685757" stroke-opacity="0.1" stroke-width="12" stroke-linecap="round" stroke-linejoin="round" stroke-dasharray="36 20"/>
<line x1="6" y1="-6" x2="733.11" y2="-6" transform="matrix(0.984663 -0.174465 0.172835 0.984951 -16.4453 1229.77)" stroke="#685757" stroke-opacity="0.1" stroke-width="12" stroke-linecap="round" stroke-linejoin="round" stroke-dasharray="36 20"/>
<line x1="6" y1="-6" x2="733.11" y2="-6" transform="matrix(0.984663 -0.174465 0.172835 0.984951 18.1201 1204.11)" stroke="#685757" stroke-opacity="0.1" stroke-width="12" stroke-linecap="round" stroke-linejoin="round" stroke-dasharray="36 20"/>
<line x1="6" y1="-6" x2="733.11" y2="-6" transform="matrix(0.984663 -0.174465 0.172835 0.984951 -3.15137 1305.53)" stroke="#685757" stroke-opacity="0.1" stroke-width="12" stroke-linecap="round" stroke-linejoin="round" stroke-dasharray="36 20"/>
<line x1="6" y1="-6" x2="733.11" y2="-6" transform="matrix(0.984663 -0.174465 0.172835 0.984951 31.4141 1279.88)" stroke="#685757" stroke-opacity="0.1" stroke-width="12" stroke-linecap="round" stroke-linejoin="round" stroke-dasharray="36 20"/>
<line x1="6" y1="-6" x2="733.11" y2="-6" transform="matrix(0.984663 -0.174465 0.172835 0.984951 -9.79785 1267.65)" stroke="#685757" stroke-opacity="0.1" stroke-width="12" stroke-linecap="round" stroke-linejoin="round" stroke-dasharray="36 20"/>
<line x1="6" y1="-6" x2="733.11" y2="-6" transform="matrix(0.984663 -0.174465 0.172835 0.984951 44.709 1355.64)" stroke="#685757" stroke-opacity="0.1" stroke-width="12" stroke-linecap="round" stroke-linejoin="round" stroke-dasharray="36 20"/>
<line x1="6" y1="-6" x2="733.11" y2="-6" transform="matrix(0.984663 -0.174465 0.172835 0.984951 3.49609 1343.41)" stroke="#685757" stroke-opacity="0.1" stroke-width="12" stroke-linecap="round" stroke-linejoin="round" stroke-dasharray="36 20"/>
<line x1="6" y1="-6" x2="733.11" y2="-6" transform="matrix(0.984663 -0.174465 0.172835 0.984951 38.0615 1317.76)" stroke="#685757" stroke-opacity="0.1" stroke-width="12" stroke-linecap="round" stroke-linejoin="round" stroke-dasharray="36 20"/>
</g>
<defs>
<linearGradient id="paint0_linear" x1="-1.60336e-05" y1="1226" x2="538" y2="2.32546e-06" gradientUnits="userSpaceOnUse">
<stop stop-color="#61C0BB"/>
<stop offset="0.0001" stop-color="#61C0BB"/>
<stop offset="1" stop-color="#7ED9D4"/>
</linearGradient>
</defs>
</svg>
