<svg width="26" height="22" viewBox="0 0 26 22" fill="none" xmlns="http://www.w3.org/2000/svg">
<path d="M1.90663 16.4401C1.98539 16.4401 2.06415 16.4135 2.11666 16.3337L4.68942 13.0883L9.86119 13.1947L6.94714 21.7872C6.92089 21.8936 6.99965 22 7.10466 22H9.78243C9.86119 22 9.93994 21.9734 9.99245 21.8936L16.5556 13.3277L21.3336 13.4341C22.7512 13.4607 24.1689 13.0351 25.3502 12.237C26.2166 11.6518 26.2166 10.3748 25.3502 9.7896C24.1426 8.96493 22.725 8.5393 21.2811 8.5659L16.5031 8.67231L9.99245 0.106408C9.93994 0.0532041 9.86119 -6.30645e-07 9.78243 -6.30645e-07H7.10466C6.99965 -6.30645e-07 6.92089 0.106409 6.94714 0.212818L9.86119 8.80532L4.66316 8.88513L2.11666 5.69287C2.06415 5.63966 1.98539 5.58646 1.90663 5.58646H0.17396C0.0689496 5.58646 -0.00980789 5.69287 0.0164448 5.79928L2.01165 10.8803C2.0379 10.9601 2.0379 11.0133 2.01165 11.0931L0.0164448 16.2007C-0.0360605 16.3071 0.042697 16.4135 0.17396 16.4135H1.90663V16.4401Z" fill="#216583"/>
</svg>
